<svg width="554" height="413" viewBox="0 0 554 413" fill="none" xmlns="http://www.w3.org/2000/svg">
<path d="M549.842 362.298H0V412.144H549.842V362.298Z" fill="#ECEDF1"/>
<path fill-rule="evenodd" clip-rule="evenodd" d="M38.0009 386.985H3.63583L7.26822 380.112H41.2381L38.0009 386.985Z" fill="#DCDCDD"/>
<path fill-rule="evenodd" clip-rule="evenodd" d="M102.844 386.985H68.4793L72.1117 380.112H106.075L102.844 386.985Z" fill="#DCDCDD"/>
<path fill-rule="evenodd" clip-rule="evenodd" d="M167.702 386.985H133.337L136.972 380.112H170.935L167.702 386.985Z" fill="#DCDCDD"/>
<path fill-rule="evenodd" clip-rule="evenodd" d="M232.538 386.985H198.173L201.806 380.112H235.772L232.538 386.985Z" fill="#DCDCDD"/>
<path fill-rule="evenodd" clip-rule="evenodd" d="M297.382 386.985H263.017L266.649 380.112H300.626L297.382 386.985Z" fill="#DCDCDD"/>
<path fill-rule="evenodd" clip-rule="evenodd" d="M362.229 386.985H327.864L331.5 380.112H365.463L362.229 386.985Z" fill="#DCDCDD"/>
<path fill-rule="evenodd" clip-rule="evenodd" d="M427.076 386.985H392.711L396.343 380.112H430.31L427.076 386.985Z" fill="#DCDCDD"/>
<path fill-rule="evenodd" clip-rule="evenodd" d="M491.919 386.985H457.554L461.187 380.112H495.15L491.919 386.985Z" fill="#DCDCDD"/>
<path fill-rule="evenodd" clip-rule="evenodd" d="M556.766 386.985H522.401L526.037 380.112H560L556.766 386.985Z" fill="#DCDCDD"/>
<path opacity="0.71" fill-rule="evenodd" clip-rule="evenodd" d="M156.471 376.975C156.471 376.975 95.1226 377.384 104.539 387.219C113.955 397.054 286.33 384.044 319.128 385.267C351.926 386.49 471.063 384.69 428.457 376.975C385.851 369.26 239.023 379.686 156.471 376.975Z" fill="#CFCFCE"/>
<path fill-rule="evenodd" clip-rule="evenodd" d="M129.646 15.1994C131.545 15.2021 133.427 15.5635 135.192 16.2647C137.942 6.82822 145.931 0 155.361 0C162.76 0 169.272 4.20278 173.063 10.5705C173.688 10.4893 174.318 10.448 174.949 10.4468C181.451 10.4468 187.073 14.6221 189.754 20.6805C191.128 19.9836 192.646 19.6198 194.187 19.6187C198.235 19.6187 201.747 22.0998 203.586 25.763C204.365 25.5222 205.176 25.3983 205.991 25.3953C210.985 25.3953 215.036 29.8799 215.036 35.416C215.036 36.4508 214.89 37.4803 214.603 38.4745H113.797C113.375 36.8319 113.163 35.1427 113.164 33.4469C113.164 23.3747 120.542 15.1994 129.646 15.1994Z" fill="#EEEFF3"/>
<path fill-rule="evenodd" clip-rule="evenodd" d="M227.59 9.24414C232.471 9.25067 236.704 12.6196 237.807 17.3748C239.76 16.4096 242.058 16.4429 243.983 17.4644C245.907 18.4859 247.223 20.3708 247.518 22.5294H217.462C216.595 19.3705 217.252 15.9876 219.238 13.3828C221.225 10.778 224.314 9.24987 227.59 9.25101V9.24414Z" fill="#EEEFF3"/>
<path fill-rule="evenodd" clip-rule="evenodd" d="M209.033 51.1138H228.813C229.703 51.1138 230.425 50.3922 230.425 49.5021C230.425 48.612 229.703 47.8904 228.813 47.8904H209.033C208.605 47.8904 208.195 48.0602 207.893 48.3624C207.591 48.6647 207.421 49.0746 207.421 49.5021C207.421 49.9295 207.591 50.3395 207.893 50.6417C208.195 50.944 208.605 51.1138 209.033 51.1138Z" fill="#D5D7D8"/>
<path fill-rule="evenodd" clip-rule="evenodd" d="M201.493 60.1824H221.273C222.164 60.1824 222.885 59.4608 222.885 58.5707C222.885 57.6806 222.164 56.959 221.273 56.959H201.493C200.603 56.959 199.881 57.6806 199.881 58.5707C199.881 59.4608 200.603 60.1824 201.493 60.1824Z" fill="#D5D7D8"/>
<path fill-rule="evenodd" clip-rule="evenodd" d="M152.719 51.1138H188.616C189.506 51.1138 190.228 50.3922 190.228 49.5021C190.228 48.612 189.506 47.8904 188.616 47.8904H152.719C151.828 47.8904 151.107 48.612 151.107 49.5021C151.107 50.3922 151.828 51.1138 152.719 51.1138Z" fill="#D5D7D8"/>
<path fill-rule="evenodd" clip-rule="evenodd" d="M198.221 49.5019C198.227 50.3906 198.951 51.107 199.84 51.1033C200.729 51.0995 201.447 50.3769 201.445 49.4882C201.443 48.5994 200.722 47.8799 199.833 47.8799C199.404 47.8799 198.992 48.0511 198.69 48.3556C198.387 48.6601 198.219 49.0727 198.221 49.5019Z" fill="#D5D7D8"/>
<path fill-rule="evenodd" clip-rule="evenodd" d="M190.53 58.5707C190.53 59.4608 191.252 60.1824 192.142 60.1824C193.032 60.1824 193.754 59.4608 193.754 58.5707C193.754 57.6806 193.032 56.959 192.142 56.959C191.715 56.959 191.305 57.1288 191.003 57.431C190.7 57.7333 190.53 58.1432 190.53 58.5707Z" fill="#D5D7D8"/>
<path fill-rule="evenodd" clip-rule="evenodd" d="M206.703 184.115C205.791 184.115 204.888 184.299 204.05 184.658C203.204 182.208 201.388 180.215 199.027 179.148C196.666 178.08 193.969 178.032 191.572 179.015C190.321 171.482 183.806 165.958 176.169 165.956C175.556 165.958 174.943 165.996 174.334 166.07C170.806 157.925 162.777 152.654 153.901 152.654C145.024 152.654 136.996 157.925 133.467 166.07C132.858 165.996 132.246 165.958 131.632 165.956C124.128 165.958 117.685 171.298 116.292 178.671C111.832 177.398 107.11 179.572 105.178 183.788C103.051 182.96 100.652 183.236 98.7688 184.527C97.2986 179.788 93.1201 176.401 88.1796 175.942C83.2392 175.483 78.5084 178.044 76.1909 182.431C71.8876 179.401 65.9432 180.43 62.9088 184.73C60.8122 183.136 57.9935 182.869 55.6348 184.04C53.2762 185.212 51.7855 187.619 51.7882 190.252C51.7881 190.455 51.7984 190.658 51.8191 190.86H213.449C213.449 187.135 210.428 184.115 206.703 184.115Z" fill="#EEEFF3"/>
<path fill-rule="evenodd" clip-rule="evenodd" d="M418.653 92.1381C417.742 92.1364 416.84 92.3212 416.003 92.681C415.156 90.2327 413.338 88.2408 410.977 87.1729C408.617 86.105 405.921 86.0551 403.522 87.0349C402.272 79.5016 395.756 73.9776 388.12 73.9764C387.506 73.9783 386.894 74.015 386.284 74.0864C382.754 65.9444 374.726 60.6755 365.851 60.6755C356.976 60.6755 348.948 65.9444 345.417 74.0864C344.809 74.015 344.198 73.9783 343.586 73.9764C336.08 73.9763 329.636 79.3162 328.242 86.6913C323.782 85.4258 319.064 87.5991 317.128 91.8116C315.002 90.9842 312.603 91.2621 310.722 92.5539C309.252 87.8151 305.074 84.4274 300.133 83.9687C295.193 83.51 290.462 86.0705 288.145 90.4577C283.84 87.4273 277.895 88.4561 274.859 92.7566C272.762 91.163 269.944 90.8958 267.585 92.0671C265.226 93.2383 263.736 95.6456 263.738 98.279C263.738 98.4852 263.738 98.6879 263.769 98.8873H425.402C425.403 97.097 424.692 95.3798 423.426 94.1139C422.16 92.8479 420.443 92.1372 418.653 92.1381Z" fill="#EEEFF3"/>
<path fill-rule="evenodd" clip-rule="evenodd" d="M140.488 228.472H172.874C174.331 228.472 175.513 227.291 175.513 225.833C175.513 224.375 174.331 223.194 172.874 223.194H140.488C139.788 223.194 139.117 223.472 138.622 223.967C138.127 224.462 137.849 225.133 137.849 225.833C137.849 227.291 139.03 228.472 140.488 228.472Z" fill="#D5D7D8"/>
<path d="M125.426 228.472C126.883 228.472 128.065 227.291 128.065 225.833C128.065 224.375 126.883 223.194 125.426 223.194C123.968 223.194 122.787 224.375 122.787 225.833C122.787 227.291 123.968 228.472 125.426 228.472Z" fill="#D5D7D8"/>
<path fill-rule="evenodd" clip-rule="evenodd" d="M122.491 248.83H154.877C156.334 248.83 157.516 247.648 157.516 246.19C157.516 244.733 156.334 243.551 154.877 243.551H122.491C121.033 243.551 119.852 244.733 119.852 246.19C119.852 247.648 121.033 248.83 122.491 248.83Z" fill="#D5D7D8"/>
<path d="M107.181 248.83C108.639 248.83 109.821 247.648 109.821 246.19C109.821 244.733 108.639 243.551 107.181 243.551C105.724 243.551 104.542 244.733 104.542 246.19C104.542 247.648 105.724 248.83 107.181 248.83Z" fill="#D5D7D8"/>
<path d="M92.3631 248.83C93.8207 248.83 95.0023 247.648 95.0023 246.19C95.0023 244.733 93.8207 243.551 92.3631 243.551C90.9055 243.551 89.7239 244.733 89.7239 246.19C89.7239 247.648 90.9055 248.83 92.3631 248.83Z" fill="#D5D7D8"/>
<path fill-rule="evenodd" clip-rule="evenodd" d="M121.852 356.525C121.852 356.525 101.305 326.971 104.985 316.274C108.666 305.576 124.745 323.542 124.745 323.542C124.745 323.542 131.787 288.583 138.622 285.517C145.457 282.452 163.856 308.542 163.856 308.542C163.856 308.542 191.005 276.665 201.62 278.768C212.235 280.871 214.335 304.373 214.335 304.373C214.335 304.373 235.298 292.095 239.532 296.208C243.765 300.322 239.532 317.597 239.532 317.597C239.532 317.597 253.24 313.61 258.498 319.847C263.756 326.085 239.525 353.212 239.525 353.212L121.852 356.525Z" fill="#D5D7D8"/>
<path fill-rule="evenodd" clip-rule="evenodd" d="M118.103 362.315C118.103 362.315 103.82 352.693 101.985 343.095C100.15 333.497 120.735 341.92 120.735 341.92C120.735 341.92 111.766 316.792 115.432 311.995C119.099 307.198 136.825 317.837 136.825 317.837C136.825 317.837 155.262 285.397 164.379 289.878C173.496 294.359 186.922 321.799 186.922 321.799C186.922 321.799 215.669 300.864 221.17 307.084C226.672 313.304 214.438 333.325 214.438 333.325C214.438 333.325 237.58 327.682 240.068 333.325C242.556 338.968 227.274 351.356 227.274 351.356C227.274 351.356 247.254 346.16 248.876 352.342C250.498 358.525 222.383 362.308 222.383 362.308L118.103 362.315Z" fill="#ECEDF1"/>
<path fill-rule="evenodd" clip-rule="evenodd" d="M231.786 337.428C219.514 340.837 207.242 340.837 194.967 334.703C177.241 326.521 163.609 346.975 147.244 354.473C139.746 357.882 130.199 351.064 121.336 353.098C118.034 353.772 115.181 355.834 113.505 358.758C116.103 360.944 118.103 362.287 118.103 362.287H222.39C222.39 362.287 250.508 358.507 248.882 352.322C247.257 346.136 227.28 351.332 227.28 351.332C227.28 351.332 237.741 342.847 239.937 336.724C237.207 336.205 234.387 336.449 231.786 337.428Z" fill="#D5D7D8"/>
<path fill-rule="evenodd" clip-rule="evenodd" d="M201.582 277.043C201.809 279.954 201.28 282.37 200.404 282.438C199.527 282.507 198.634 280.201 198.407 277.284C198.18 274.366 198.709 271.957 199.586 271.888C200.462 271.82 201.355 274.132 201.582 277.043Z" fill="#DCDCDD"/>
<path fill-rule="evenodd" clip-rule="evenodd" d="M206.747 280.129C204.943 282.232 202.967 283.497 202.331 282.95C201.696 282.404 202.651 280.263 204.459 278.163C206.266 276.063 208.239 274.795 208.875 275.342C209.51 275.888 208.555 278.029 206.747 280.129Z" fill="#DCDCDD"/>
<path fill-rule="evenodd" clip-rule="evenodd" d="M256.319 315.854C255.426 318.04 254.168 319.597 253.511 319.325C252.855 319.054 253.041 317.067 253.934 314.878C254.828 312.689 256.085 311.136 256.742 311.408C257.398 311.679 257.209 313.665 256.319 315.854Z" fill="#DCDCDD"/>
<path fill-rule="evenodd" clip-rule="evenodd" d="M130.787 298.6C132.697 299.974 133.907 301.579 133.488 302.156C133.069 302.734 131.182 302.071 129.271 300.682C127.361 299.294 126.151 297.699 126.57 297.126C126.989 296.552 128.869 297.208 130.787 298.6Z" fill="#DCDCDD"/>
<path fill-rule="evenodd" clip-rule="evenodd" d="M133.371 296.435C134.175 298.181 134.402 299.789 133.873 300.029C133.343 300.27 132.275 299.053 131.467 297.311C130.66 295.569 130.436 293.957 130.965 293.717C131.495 293.476 132.567 294.693 133.371 296.435Z" fill="#DCDCDD"/>
<path fill-rule="evenodd" clip-rule="evenodd" d="M258.793 319.466C257.041 320.215 255.439 320.394 255.216 319.868C254.993 319.342 256.226 318.304 257.965 317.559C259.704 316.813 261.319 316.631 261.543 317.16C261.766 317.689 260.546 318.72 258.793 319.466Z" fill="#DCDCDD"/>
<path fill-rule="evenodd" clip-rule="evenodd" d="M162.595 290.998C162.595 294.579 161.719 297.486 160.643 297.486C159.567 297.486 158.688 294.579 158.688 290.998C158.688 287.417 159.564 284.514 160.643 284.514C161.722 284.514 162.595 287.417 162.595 290.998Z" fill="#DCDCDD"/>
<path fill-rule="evenodd" clip-rule="evenodd" d="M167.172 292.555C166.08 295.266 164.537 297.194 163.736 296.864C162.935 296.534 163.145 294.074 164.238 291.366C165.331 288.658 166.874 286.73 167.691 287.057C168.509 287.383 168.265 289.861 167.172 292.555Z" fill="#DCDCDD"/>
<path fill-rule="evenodd" clip-rule="evenodd" d="M102.253 336.799C104.903 339.205 106.46 341.817 105.731 342.614C105.003 343.411 102.271 342.098 99.6244 339.686C96.9783 337.274 95.4216 334.669 96.1467 333.871C96.8718 333.074 99.6073 334.387 102.253 336.799Z" fill="#DCDCDD"/>
<path fill-rule="evenodd" clip-rule="evenodd" d="M106.501 334.48C107.769 337.112 108.15 339.555 107.36 339.937C106.57 340.318 104.899 338.49 103.635 335.861C102.37 333.232 101.985 330.785 102.776 330.404C103.566 330.023 105.236 331.844 106.501 334.48Z" fill="#DCDCDD"/>
<path fill-rule="evenodd" clip-rule="evenodd" d="M219.734 302.634C219.961 305.545 219.435 307.96 218.559 308.029C217.682 308.098 216.785 305.792 216.559 302.874C216.332 299.957 216.861 297.548 217.737 297.479C218.614 297.411 219.507 299.723 219.734 302.634Z" fill="#DCDCDD"/>
<path fill-rule="evenodd" clip-rule="evenodd" d="M224.899 305.72C223.095 307.823 221.119 309.088 220.483 308.541C219.847 307.995 220.803 305.854 222.61 303.751C224.418 301.648 226.39 300.387 227.026 300.93C227.662 301.473 226.707 303.621 224.899 305.72Z" fill="#DCDCDD"/>
<path fill-rule="evenodd" clip-rule="evenodd" d="M141.086 333.717C143.327 335.59 144.687 337.655 144.124 338.329C143.56 339.002 141.289 338.03 139.045 336.16C136.801 334.291 135.447 332.222 136.01 331.548C136.574 330.875 138.835 331.844 141.086 333.717Z" fill="#DCDCDD"/>
<path fill-rule="evenodd" clip-rule="evenodd" d="M146.904 332.177C147.148 334.926 146.667 337.236 145.839 337.308C145.01 337.38 144.138 335.201 143.897 332.442C143.656 329.682 144.134 327.383 144.966 327.311C145.797 327.239 146.663 329.418 146.904 332.177Z" fill="#DCDCDD"/>
<path fill-rule="evenodd" clip-rule="evenodd" d="M192.476 314.892C194.716 316.765 196.077 318.83 195.513 319.504C194.95 320.177 192.675 319.205 190.434 317.335C188.194 315.466 186.833 313.397 187.396 312.724C187.96 312.05 190.235 313.019 192.476 314.892Z" fill="#DCDCDD"/>
<path fill-rule="evenodd" clip-rule="evenodd" d="M198.287 313.353C198.527 316.102 198.05 318.411 197.218 318.483C196.386 318.555 195.517 316.377 195.276 313.617C195.036 310.858 195.513 308.559 196.345 308.487C197.177 308.414 198.053 310.593 198.287 313.353Z" fill="#DCDCDD"/>
<path fill-rule="evenodd" clip-rule="evenodd" d="M228.445 328.789C227.758 331.04 226.641 332.693 225.964 332.483C225.287 332.273 225.301 330.284 225.995 328.016C226.689 325.747 227.799 324.112 228.476 324.321C229.153 324.531 229.14 326.541 228.445 328.789Z" fill="#DCDCDD"/>
<path fill-rule="evenodd" clip-rule="evenodd" d="M231.277 330.373C230.061 331.703 228.755 332.483 228.353 332.119C227.951 331.755 228.614 330.38 229.83 329.05C231.047 327.72 232.353 326.944 232.751 327.308C233.15 327.672 232.49 329.047 231.277 330.373Z" fill="#DCDCDD"/>
<path fill-rule="evenodd" clip-rule="evenodd" d="M116.8 309.05C117.776 311.194 119.092 312.693 119.735 312.397C120.378 312.102 120.113 310.129 119.137 307.988C118.161 305.847 116.845 304.349 116.202 304.641C115.56 304.933 115.81 306.909 116.8 309.05Z" fill="#DCDCDD"/>
<path fill-rule="evenodd" clip-rule="evenodd" d="M114.199 310.985C115.573 312.15 116.968 312.754 117.319 312.342C117.67 311.93 116.838 310.651 115.463 309.49C114.089 308.328 112.693 307.72 112.343 308.115C111.992 308.51 112.824 309.823 114.199 310.985Z" fill="#DCDCDD"/>
<path fill-rule="evenodd" clip-rule="evenodd" d="M247.15 358.38C247.15 358.38 233.202 338.308 235.7 331.05C238.198 323.792 249.123 335.985 249.123 335.985C249.123 335.985 253.903 312.249 258.542 310.167C263.182 308.084 275.677 325.799 275.677 325.799C275.677 325.799 294.121 304.15 301.317 305.586C308.513 307.022 309.946 322.968 309.946 322.968C309.946 322.968 324.169 314.634 327.049 317.428C329.929 320.222 327.049 331.947 327.049 331.947C327.049 331.947 336.359 329.243 339.929 333.476C343.5 337.71 327.049 356.129 327.049 356.129L247.15 358.38Z" fill="#D5D7D8"/>
<path fill-rule="evenodd" clip-rule="evenodd" d="M244.607 362.315C244.607 362.315 234.91 355.786 233.662 349.256C232.415 342.727 246.377 348.456 246.377 348.456C246.377 348.456 240.284 331.397 242.776 328.139C245.267 324.882 257.298 332.112 257.298 332.112C257.298 332.112 269.818 310.088 276.01 313.129C282.203 316.17 291.313 334.803 291.313 334.803C291.313 334.803 310.832 320.586 314.568 324.81C318.303 329.033 310.001 342.631 310.001 342.631C310.001 342.631 325.712 338.803 327.403 342.631C329.094 346.459 318.716 354.875 318.716 354.875C318.716 354.875 332.28 351.349 333.383 355.562C334.486 359.775 315.413 362.315 315.413 362.315H244.607Z" fill="#ECEDF1"/>
<path fill-rule="evenodd" clip-rule="evenodd" d="M321.791 345.415C313.458 347.727 305.128 347.727 296.794 343.562C284.766 338.006 275.488 351.892 264.391 356.985C259.302 359.301 252.821 354.672 246.803 356.061C244.558 356.517 242.619 357.92 241.484 359.909C243.25 361.394 244.607 362.315 244.607 362.315H315.399C315.399 362.315 334.489 359.751 333.386 355.555C332.283 351.36 318.719 354.868 318.719 354.868C318.719 354.868 325.822 349.105 327.31 344.947C325.463 344.594 323.553 344.756 321.791 345.415Z" fill="#D5D7D8"/>
<path fill-rule="evenodd" clip-rule="evenodd" d="M301.286 304.414C301.437 306.39 301.08 308.029 300.485 308.078C299.891 308.126 299.282 306.559 299.131 304.583C298.98 302.607 299.334 300.964 299.928 300.919C300.523 300.875 301.131 302.438 301.286 304.414Z" fill="#DCDCDD"/>
<path fill-rule="evenodd" clip-rule="evenodd" d="M304.791 306.51C303.564 307.937 302.224 308.796 301.794 308.425C301.365 308.053 302.011 306.6 303.238 305.174C304.465 303.748 305.805 302.888 306.234 303.256C306.664 303.624 306.018 305.084 304.791 306.51Z" fill="#DCDCDD"/>
<path fill-rule="evenodd" clip-rule="evenodd" d="M338.448 330.765C337.843 332.25 336.988 333.305 336.541 333.122C336.094 332.94 336.225 331.59 336.83 330.102C337.434 328.614 338.29 327.562 338.737 327.744C339.184 327.927 339.053 329.277 338.448 330.765Z" fill="#DCDCDD"/>
<path fill-rule="evenodd" clip-rule="evenodd" d="M253.219 319.05C254.515 319.992 255.336 321.074 255.054 321.455C254.773 321.837 253.487 321.401 252.192 320.456C250.896 319.51 250.071 318.431 250.357 318.05C250.642 317.669 251.92 318.105 253.219 319.05Z" fill="#DCDCDD"/>
<path fill-rule="evenodd" clip-rule="evenodd" d="M254.989 317.579C255.536 318.765 255.676 319.858 255.333 320.023C254.989 320.187 254.243 319.359 253.7 318.174C253.157 316.988 253.013 315.899 253.357 315.734C253.7 315.569 254.429 316.397 254.989 317.579Z" fill="#DCDCDD"/>
<path fill-rule="evenodd" clip-rule="evenodd" d="M340.129 333.219C338.94 333.724 337.854 333.847 337.699 333.49C337.544 333.133 338.386 332.428 339.575 331.923C340.764 331.418 341.854 331.294 342.005 331.652C342.156 332.009 341.318 332.71 340.129 333.219Z" fill="#DCDCDD"/>
<path fill-rule="evenodd" clip-rule="evenodd" d="M274.814 313.889C274.814 316.322 274.22 318.294 273.488 318.294C272.756 318.294 272.161 316.322 272.161 313.889C272.161 311.456 272.756 309.487 273.488 309.487C274.22 309.487 274.814 311.456 274.814 313.889Z" fill="#DCDCDD"/>
<path fill-rule="evenodd" clip-rule="evenodd" d="M277.921 314.957C277.182 316.796 276.13 318.105 275.577 317.882C275.024 317.658 275.175 315.988 275.921 314.15C276.667 312.311 277.711 310.998 278.265 311.222C278.818 311.445 278.663 313.115 277.921 314.957Z" fill="#DCDCDD"/>
<path fill-rule="evenodd" clip-rule="evenodd" d="M233.848 344.985C235.645 346.624 236.7 348.394 236.205 348.933C235.71 349.473 233.858 348.59 232.061 346.944C230.263 345.298 229.205 343.538 229.7 342.999C230.195 342.459 232.05 343.346 233.848 344.985Z" fill="#DCDCDD"/>
<path fill-rule="evenodd" clip-rule="evenodd" d="M236.731 343.414C237.59 345.201 237.851 346.851 237.312 347.119C236.772 347.387 235.642 346.139 234.782 344.37C233.923 342.6 233.662 340.933 234.202 340.665C234.741 340.397 235.872 341.621 236.731 343.414Z" fill="#DCDCDD"/>
<path fill-rule="evenodd" clip-rule="evenodd" d="M313.609 321.789C313.764 323.765 313.406 325.404 312.812 325.452C312.217 325.5 311.609 323.933 311.437 321.957C311.265 319.981 311.64 318.339 312.234 318.294C312.829 318.249 313.454 319.813 313.609 321.789Z" fill="#DCDCDD"/>
<path fill-rule="evenodd" clip-rule="evenodd" d="M317.118 323.885C315.891 325.311 314.547 326.17 314.118 325.799C313.688 325.428 314.334 323.974 315.561 322.548C316.788 321.122 318.132 320.263 318.561 320.634C318.991 321.005 318.345 322.452 317.118 323.885Z" fill="#DCDCDD"/>
<path fill-rule="evenodd" clip-rule="evenodd" d="M260.213 342.892C261.732 344.164 262.656 345.566 262.275 346.023C261.893 346.48 260.347 345.824 258.838 344.552C257.329 343.281 256.395 341.879 256.776 341.418C257.158 340.958 258.69 341.621 260.213 342.892Z" fill="#DCDCDD"/>
<path fill-rule="evenodd" clip-rule="evenodd" d="M264.161 341.848C264.326 343.724 264 345.284 263.436 345.332C262.872 345.38 262.281 343.903 262.12 342.026C261.958 340.15 262.281 338.59 262.845 338.542C263.409 338.494 264 339.978 264.161 341.848Z" fill="#DCDCDD"/>
<path fill-rule="evenodd" clip-rule="evenodd" d="M295.1 330.112C296.622 331.384 297.547 332.786 297.162 333.243C296.777 333.7 295.237 333.04 293.725 331.768C292.213 330.497 291.282 329.095 291.663 328.638C292.045 328.181 293.581 328.841 295.1 330.112Z" fill="#DCDCDD"/>
<path fill-rule="evenodd" clip-rule="evenodd" d="M299.052 329.067C299.217 330.94 298.891 332.504 298.327 332.548C297.763 332.593 297.172 331.119 297.007 329.246C296.842 327.373 297.169 325.81 297.732 325.761C298.296 325.713 298.887 327.191 299.052 329.067Z" fill="#DCDCDD"/>
<path fill-rule="evenodd" clip-rule="evenodd" d="M319.523 339.549C319.053 341.075 318.3 342.198 317.839 342.054C317.379 341.91 317.389 340.562 317.86 339.033C318.331 337.504 319.087 336.384 319.544 336.525C320.001 336.666 319.994 338.02 319.523 339.549Z" fill="#DCDCDD"/>
<path fill-rule="evenodd" clip-rule="evenodd" d="M321.448 340.624C320.623 341.524 319.73 342.053 319.461 341.806C319.193 341.559 319.64 340.627 320.461 339.723C321.283 338.82 322.18 338.294 322.448 338.541C322.716 338.789 322.269 339.72 321.448 340.624Z" fill="#DCDCDD"/>
<path fill-rule="evenodd" clip-rule="evenodd" d="M243.724 326.147C244.384 327.6 245.277 328.617 245.714 328.418C246.15 328.219 245.972 326.878 245.308 325.425C244.645 323.971 243.752 322.954 243.315 323.153C242.879 323.353 243.061 324.693 243.724 326.147Z" fill="#DCDCDD"/>
<path fill-rule="evenodd" clip-rule="evenodd" d="M241.954 327.459C242.889 328.249 243.838 328.662 244.075 328.38C244.312 328.098 243.731 327.232 242.814 326.442C241.896 325.651 240.934 325.243 240.697 325.524C240.459 325.806 241.023 326.672 241.954 327.459Z" fill="#DCDCDD"/>
<path fill-rule="evenodd" clip-rule="evenodd" d="M463.699 286.122C488.658 284.524 517.456 256.318 509.861 238.864C502.267 221.41 500.531 209.857 508.215 198.063C515.185 187.369 489.163 142.049 499.036 124.681C495.345 121.186 490.242 119.234 485.531 120.839C479.551 122.881 476.596 129.472 474.699 135.503C472.62 142.165 471.045 148.975 469.988 155.874C468.981 162.448 468.269 169.517 464.022 174.63C459.355 180.242 451.478 182.163 446.286 187.293C441.93 191.678 439.93 197.88 440.904 203.984C441.794 209.273 444.846 213.902 447.025 218.806C449.204 223.709 450.461 229.627 447.784 234.27C445.43 238.366 440.681 240.39 437.389 243.778C433.179 248.108 431.615 254.562 432.368 260.551C433.121 266.541 435.973 272.101 439.585 276.947C441.464 279.474 443.552 281.839 445.829 284.016C451.611 285.783 457.664 286.497 463.699 286.122Z" fill="#ECEDF1"/>
<path fill-rule="evenodd" clip-rule="evenodd" d="M488.328 311.455C493.641 299.954 512.831 291.96 520.25 285.617C528.078 278.919 535.243 269.94 536.745 259.448C538.422 247.699 532.003 241.421 526.601 232.197C517.666 216.922 535.745 201.932 529.618 186.596C526.456 178.692 517.167 175.156 512.164 168.269C508.164 162.771 507.274 155.647 506.717 148.86C506.16 142.073 505.744 135.015 502.449 129.056C501.544 127.434 500.396 125.96 499.047 124.685C489.174 142.052 515.198 187.372 508.226 198.066C500.542 209.86 502.28 221.434 509.872 238.867C517.463 256.3 488.668 284.527 463.709 286.125C457.675 286.503 451.622 285.793 445.839 284.029C449.419 287.462 453.436 290.406 457.788 292.785C468.376 298.572 481.5 301.49 488.328 311.455Z" fill="#D5D7D8"/>
<path fill-rule="evenodd" clip-rule="evenodd" d="M513.676 245.606L513.178 245.146L488.658 271.854V207.029L504.652 186.768L504.119 186.348L488.658 205.936V140.654H487.981V174.895L477.094 159.056L476.537 159.441L487.981 176.09V228.455L459.08 199.3L458.599 199.778L487.981 229.417V291.995L450.805 254.95L450.327 255.428L487.981 292.95V361.37H488.658V272.854L513.676 245.606Z" fill="#D5D7D8"/>
<path fill-rule="evenodd" clip-rule="evenodd" d="M136.491 244.503C128.794 231.362 144.361 218.465 139.086 205.266C136.368 198.465 128.374 195.424 124.072 189.499C120.635 184.757 119.862 178.637 119.384 172.798C118.907 166.96 118.546 160.884 115.711 155.757C114.932 154.364 113.945 153.098 112.783 152.004C109.608 148.997 105.223 147.317 101.161 148.698C96.0058 150.454 93.4593 156.124 91.8407 161.314C90.0541 167.046 88.6997 172.904 87.7891 178.839C86.9231 184.496 86.3114 190.578 82.655 194.991C78.6377 199.819 71.8609 201.472 67.3934 205.888C63.6436 209.66 61.9222 214.996 62.761 220.249C63.5273 224.802 66.1528 228.785 68.0257 233.001C69.8986 237.218 70.9777 242.314 68.6787 246.317C66.6546 249.843 62.5685 251.582 59.7437 254.5C56.1217 258.221 54.7745 263.778 55.424 268.933C56.0735 274.087 58.5169 278.871 61.6098 283.043C65.7893 288.654 71.1296 293.298 77.2665 296.658C86.3973 301.641 97.6897 304.136 103.559 312.723C108.133 302.826 124.642 295.95 131.027 290.49C137.763 284.727 143.928 276.998 145.217 267.971C146.663 257.847 141.137 252.441 136.491 244.503Z" fill="#ECEDF1"/>
<path d="M103.773 240.208H103.36V362.435H103.773V240.208Z" fill="#D5D7D8"/>
<path fill-rule="evenodd" clip-rule="evenodd" d="M103.411 279.862L121.016 262.257L121.259 262.5L103.654 280.105L103.411 279.862Z" fill="#D5D7D8"/>
<path fill-rule="evenodd" clip-rule="evenodd" d="M88.2818 242.877L88.5248 242.634L103.654 257.763L103.411 258.006L88.2818 242.877Z" fill="#D5D7D8"/>
</svg>
