<svg width="554" height="824" viewBox="0 0 554 824" fill="none" xmlns="http://www.w3.org/2000/svg">
<g clip-path="url(#clip0_3_277)">
<rect width="554" height="824" rx="32" fill="#3A67EC"/>
<rect width="654" height="900" fill="url(#paint0_linear_3_277)"/>
<path fill-rule="evenodd" clip-rule="evenodd" d="M512.843 589.96H476.337L471.474 518.824H517.995L512.843 589.96Z" fill="#D5D7D8"/>
<path fill-rule="evenodd" clip-rule="evenodd" d="M484.853 503.214C484.853 503.214 490.642 474.601 479.061 463.031C467.481 451.462 460.877 447.321 460.877 447.321C460.877 447.321 439.359 481.718 484.853 503.214Z" fill="#ECEDF1"/>
<path fill-rule="evenodd" clip-rule="evenodd" d="M487.5 423.397C487.5 423.397 493.288 394.783 481.708 383.21C470.127 371.637 463.524 367.5 463.524 367.5C463.524 367.5 442.006 401.896 487.5 423.397Z" fill="#ECEDF1"/>
<path fill-rule="evenodd" clip-rule="evenodd" d="M491.8 376.872C491.8 376.872 496.875 358.24 487.278 347.656C477.681 337.073 467.316 334.427 467.316 334.427C467.316 334.427 465.992 363.754 491.8 376.872Z" fill="#D5D7D8"/>
<path fill-rule="evenodd" clip-rule="evenodd" d="M501.064 488.167C501.064 488.167 498.747 446.658 526.377 429.295C526.377 429.295 526.555 478.24 501.064 488.167Z" fill="#ECEDF1"/>
<path fill-rule="evenodd" clip-rule="evenodd" d="M494.474 463.139C494.474 463.139 491.14 434.256 470.037 425.564C470.037 425.558 475.728 459.318 494.474 463.139Z" fill="#D5D7D8"/>
<path fill-rule="evenodd" clip-rule="evenodd" d="M506.192 414.247C506.192 414.247 489.483 384.644 523.393 362.649C523.393 362.649 536.412 399.678 506.192 414.247Z" fill="#D5D7D8"/>
<path d="M486.301 360.333C486.301 360.333 495.659 378.636 495.659 406.64V448.327" stroke="#D5D7D8" stroke-width="2" stroke-linecap="round"/>
<path d="M477.795 401.348C477.795 401.348 485.624 415.348 487.5 423.397C489.375 431.446 490.982 457.241 490.982 483.37V540.26" stroke="#D5D7D8" stroke-width="2" stroke-linecap="round"/>
<path d="M475.148 481.829C475.148 481.829 483.903 495.829 484.853 503.215C485.803 510.6 484.853 541.085 484.853 541.085" stroke="#D5D7D8" stroke-width="2" stroke-linecap="round"/>
<path d="M487.086 452.704C487.086 452.704 492.349 459.1 494.474 463.139C496.599 467.179 498.336 481.653 498.336 488.174V536.793" stroke="#D5D7D8" stroke-width="2" stroke-linecap="round"/>
<path d="M512.809 391.919C512.809 391.919 506.192 404.818 506.192 414.247V536.779" stroke="#D5D7D8" stroke-width="2" stroke-linecap="round"/>
<path d="M272.158 207H271.518V225.191H272.158V207Z" fill="#D5D7D8"/>
<path d="M300.151 225.191H299.511V243.383H300.151V225.191Z" fill="#D5D7D8"/>
<path d="M281.074 243.383H280.435V261.574H281.074V243.383Z" fill="#D5D7D8"/>
<path d="M328.046 224.872H246.104V225.511H328.046V224.872Z" fill="#D5D7D8"/>
<path d="M319.355 243.063H237.413V243.702H319.355V243.063Z" fill="#D5D7D8"/>
<path d="M341.479 261.254H259.536V261.894H341.479V261.254Z" fill="#D5D7D8"/>
<path d="M325.396 367.073H324.756V385.264H325.396V367.073Z" fill="#D5D7D8"/>
<path d="M353.386 385.264H352.747V403.455H353.386V385.264Z" fill="#D5D7D8"/>
<path d="M334.313 403.455H333.673V421.647H334.313V403.455Z" fill="#D5D7D8"/>
<path d="M381.285 384.944H299.343V385.584H381.285V384.944Z" fill="#D5D7D8"/>
<path d="M372.594 403.135H290.651V403.775H372.594V403.135Z" fill="#D5D7D8"/>
<path d="M394.714 421.326H312.771V421.966H394.714V421.326Z" fill="#D5D7D8"/>
<path d="M100.753 282.472H100.113V300.663H100.753V282.472Z" fill="#D5D7D8"/>
<path d="M128.746 300.663H128.106V318.854H128.746V300.663Z" fill="#D5D7D8"/>
<path d="M109.67 318.854H109.03V337.046H109.67V318.854Z" fill="#D5D7D8"/>
<path d="M156.642 300.343H74.7V300.983H156.642V300.343Z" fill="#D5D7D8"/>
<path d="M147.954 318.535H66.0112V319.174H147.954V318.535Z" fill="#D5D7D8"/>
<path d="M170.074 336.726H88.1316V337.365H170.074V336.726Z" fill="#D5D7D8"/>
<path fill-rule="evenodd" clip-rule="evenodd" d="M470.757 233.914V289.349H381.78V233.914H470.757Z" fill="#ECEDF1"/>
<path d="M478.438 295.99H374.099V227.268H478.438V295.99ZM374.419 295.654H478.135V227.608H374.419V295.654Z" fill="#DFE1EE"/>
<path fill-rule="evenodd" clip-rule="evenodd" d="M423.34 599.062C423.34 599.062 473.825 598.702 470.036 606.734C466.248 614.766 361.064 616.812 336.013 617.22C310.963 617.627 160.164 609.299 139.741 607.744C119.317 606.188 84.357 595.288 157.409 594.871C200.667 594.618 423.34 599.062 423.34 599.062Z" fill="#DCDCDD"/>
<path d="M91.6404 312.216C91.6404 312.216 270.669 314.047 254.926 358.61C239.183 403.172 151.142 414.49 205.789 437.976" stroke="#1F2055" stroke-width="2" stroke-linecap="round" stroke-dasharray="8 8"/>
<path fill-rule="evenodd" clip-rule="evenodd" d="M140.751 435.303C122.405 431.674 113.69 418.057 113.69 418.057C113.69 418.057 123.119 460.176 130.76 488.682C135.073 504.799 134.043 534.321 132.336 556.939C131.429 557.055 130.751 557.827 130.753 558.74V562.066C130.754 562.761 131.155 563.394 131.784 563.692L148.22 565.735C148.767 565.546 149.189 565.105 149.355 564.55L150.308 561.346C150.502 560.693 150.312 559.985 149.816 559.518C155.514 537.58 167.121 494.152 167.795 477.196L168.704 455.093C168.704 455.093 159.093 438.935 140.751 435.303Z" fill="#2F3E8B"/>
<path fill-rule="evenodd" clip-rule="evenodd" d="M200.499 571.175C202.091 571.088 202.361 567.381 202.361 565.789C202.361 564.197 200.499 563.679 200.499 563.679C200.499 563.679 201.408 533.517 200.499 521.173C199.589 508.829 168.717 455.093 168.717 455.093C168.717 455.093 184.153 505.924 189.06 524.808C191.962 535.988 194.111 550.92 195.097 563.655C194.611 563.694 194.159 563.924 193.843 564.297C193.527 564.669 193.373 565.151 193.414 565.638L193.75 569.6C193.831 570.551 194.627 571.283 195.582 571.283L200.445 571.246C200.354 571.195 200.371 571.195 200.499 571.175Z" fill="#2F3E8B"/>
<path fill-rule="evenodd" clip-rule="evenodd" d="M211.365 569.731L211.894 566.338C212.021 565.534 211.603 564.743 210.867 564.396C213.026 542.04 216.235 498.807 213.032 482.508C208.853 461.267 202.317 413.698 202.317 413.698L113.69 418.074C113.69 418.074 122.405 431.691 140.751 435.32C159.097 438.949 168.717 455.11 168.717 455.11C168.717 455.11 199.593 508.849 200.499 521.197C201.405 533.544 200.499 563.702 200.499 563.702C200.499 563.702 202.361 564.224 202.361 565.813C202.361 567.402 202.092 571.105 200.499 571.199C200.371 571.199 200.354 571.233 200.431 571.273L210.177 571.199C210.813 570.966 211.27 570.402 211.365 569.731Z" fill="#1F2055"/>
<path fill-rule="evenodd" clip-rule="evenodd" d="M131.258 569.624L146.748 572.219V572.205C146.859 571.327 147.395 569.048 148.233 565.739L131.797 563.696C131.612 565.759 131.427 567.745 131.258 569.624Z" fill="#F37878"/>
<path fill-rule="evenodd" clip-rule="evenodd" d="M200.431 571.25L195.569 571.287C195.7 574.262 195.751 577.009 195.714 579.436C196.724 579.392 198.121 579.339 199.734 579.275L200.431 571.25Z" fill="#F37878"/>
<path fill-rule="evenodd" clip-rule="evenodd" d="M209.399 577.642C209.557 576.632 209.833 574.377 210.177 571.176L200.432 571.25L199.735 579.275C202.617 579.161 206.163 579.029 209.305 578.938C209.299 578.504 209.33 578.071 209.399 577.642Z" fill="#F15859"/>
<path d="M196.687 563.685L209.308 564.298" stroke="#0E142D" stroke-width="2" stroke-linecap="round"/>
<path d="M202.998 562.389C202.998 562.389 203.695 518.816 199.735 500.662C195.775 482.508 185.541 438.935 185.541 438.935" stroke="#0E142D" stroke-width="2" stroke-linecap="round"/>
<path d="M133.03 557.125L148.227 559.212" stroke="#CAE2F2" stroke-width="2" stroke-linecap="round"/>
<path d="M140.629 555.311C140.629 555.311 151.826 507.2 151.826 480.149C151.826 453.097 144.889 436.387 144.889 436.387" stroke="#CAE2F2" stroke-width="2" stroke-linecap="round"/>
<path fill-rule="evenodd" clip-rule="evenodd" d="M211.759 337.577C218.494 338.19 235.058 345.246 228.495 320.84C220.932 305.561 208.436 289.389 204.95 285.447L197.151 291.17C202.778 303.235 209.493 322.719 209.493 322.719C209.493 322.719 198.596 314.003 190.561 306.241C182.527 298.478 158.551 291.399 158.551 291.399C158.551 291.399 134.575 286.434 121.324 303.14C120.068 304.722 118.967 307.032 118.048 309.917C118.048 309.917 140.757 320.015 151.109 349.248C161.46 378.481 167.636 411.884 202.324 413.699L196.495 352.927L193.599 322.197C193.599 322.197 205.041 336.948 211.759 337.577Z" fill="white"/>
<path fill-rule="evenodd" clip-rule="evenodd" d="M233.869 344.212C235.688 338.51 232.947 329.822 228.482 320.827C235.045 345.232 218.467 338.177 211.746 337.564C205.024 336.951 193.585 322.197 193.585 322.197L196.481 352.928C196.481 352.928 228.967 359.6 233.869 344.212Z" fill="#C9E2F4"/>
<path fill-rule="evenodd" clip-rule="evenodd" d="M151.102 349.248C140.751 320.019 118.041 309.917 118.041 309.917C109.074 337.547 113.69 418.058 113.69 418.058C113.69 418.058 124.405 426.591 148.937 429.14C173.469 431.688 202.334 413.705 202.334 413.705C167.629 411.884 161.454 378.481 151.102 349.248Z" fill="#C9E2F4"/>
<path d="M0 575.168C0 575.168 16.3454 575.024 46.1739 535.053C76.0024 495.082 103.699 457.08 168.717 447.287" stroke="#222154" stroke-width="19"/>
<path d="M180.001 483.663C190.892 482.438 198.018 466.312 195.918 447.645C193.817 428.978 183.286 414.839 172.395 416.064C161.504 417.29 154.378 433.416 156.479 452.083C158.579 470.75 169.111 484.889 180.001 483.663Z" fill="#FDB714"/>
<path fill-rule="evenodd" clip-rule="evenodd" d="M204.314 453.862C208.143 454.481 214.554 461.755 220.111 470.111L212.177 399.645L177.715 405.081C173.233 405.576 169.478 409.413 166.801 415.446C166.801 415.446 195.596 452.444 204.314 453.862Z" fill="#F7B219"/>
<path fill-rule="evenodd" clip-rule="evenodd" d="M162.983 451.572C165.737 476.025 176.789 494.856 187.686 493.63C187.922 493.603 188.157 493.563 188.39 493.519L222.145 488.194L220.124 470.11C214.568 461.755 208.156 454.481 204.328 453.861C195.609 452.444 166.815 415.446 166.815 415.446C162.979 424.067 161.363 437.188 162.983 451.572Z" fill="#E0A126"/>
<path d="M222.136 488.196C233.026 486.97 239.625 466.155 236.874 441.703C234.122 417.252 223.063 398.424 212.172 399.649C201.281 400.874 194.683 421.69 197.434 446.141C200.186 470.593 211.245 489.421 222.136 488.196Z" fill="#FDB714"/>
<path d="M217.087 434.89C218.695 434.709 219.731 432.19 219.402 429.264C219.073 426.337 217.502 424.112 215.895 424.293C214.287 424.473 213.25 426.992 213.58 429.919C213.909 432.845 215.479 435.071 217.087 434.89Z" fill="#E0A126"/>
<path d="M221.31 467.164C222.918 466.984 223.955 464.465 223.626 461.538C223.296 458.612 221.726 456.386 220.118 456.567C218.51 456.748 217.474 459.267 217.803 462.193C218.132 465.12 219.703 467.345 221.31 467.164Z" fill="#E0A126"/>
<path fill-rule="evenodd" clip-rule="evenodd" d="M202.317 403.852C202.317 403.852 195.044 417.398 194.293 427.271C193.542 437.145 197.347 412.564 194.293 411.339C191.238 410.114 173.758 405.62 202.317 403.852Z" fill="#FFEE99"/>
<path fill-rule="evenodd" clip-rule="evenodd" d="M254.673 422.124C254.162 420.623 252.906 419.623 251.585 419.798L216.164 424.427C215.002 424.578 214.268 426.295 214.524 428.261C214.592 428.787 214.733 429.301 214.941 429.789C221.69 429.139 251.474 426.11 254.673 422.124Z" fill="#2F3E8B"/>
<path fill-rule="evenodd" clip-rule="evenodd" d="M259.092 456.565C259.19 456.087 259.207 455.597 259.142 455.114C258.886 453.148 257.411 451.717 255.849 451.923L220.42 456.551C219.575 456.662 218.962 457.595 218.784 458.847C225.424 458.955 250.653 459.18 259.092 456.565Z" fill="#2F3E8B"/>
<path fill-rule="evenodd" clip-rule="evenodd" d="M217.097 431.546L252.525 426.918C254.088 426.712 255.145 424.952 254.882 422.986C254.842 422.693 254.774 422.404 254.677 422.124C251.468 426.11 221.676 429.15 214.941 429.789C215.44 430.93 216.265 431.654 217.097 431.546Z" fill="#1F2055"/>
<path fill-rule="evenodd" clip-rule="evenodd" d="M218.777 460.385C219.037 462.351 220.188 463.822 221.35 463.671L256.782 459.042C257.94 458.891 258.802 457.881 259.092 456.565C250.653 459.18 225.418 458.955 218.784 458.847C218.711 459.357 218.709 459.875 218.777 460.385Z" fill="#1F2055"/>
<path fill-rule="evenodd" clip-rule="evenodd" d="M192.963 269.73C192.69 273.995 195.96 289.157 204.951 285.434C199.411 279.169 198.048 270.367 197.957 267.734C197.866 265.102 192.508 255.568 189.919 255.542C189.667 255.547 189.437 255.687 189.316 255.908C190.498 258.985 193.175 266.394 192.963 269.73Z" fill="#F37878"/>
<path fill-rule="evenodd" clip-rule="evenodd" d="M187.423 445.2C191.966 452.007 201.25 452.734 201.25 452.734C201.738 449.263 193.949 438.232 193.542 437.145C193.134 436.057 199.532 437.145 200.896 436.189C202.26 435.233 199.671 433.536 193.336 431.425C188.871 429.938 186.602 428.483 181.173 422.125L173.58 429.678C173.58 429.678 182.884 438.39 187.423 445.2Z" fill="#F37878"/>
<path fill-rule="evenodd" clip-rule="evenodd" d="M201.25 452.734C201.25 452.734 191.966 452.007 187.423 445.201C182.881 438.394 173.58 429.679 173.58 429.679C178.075 434.25 185.746 446.315 187.75 448.378C190.067 450.758 200.758 456.205 201.25 452.734Z" fill="#F15859"/>
<path fill-rule="evenodd" clip-rule="evenodd" d="M190.057 270.185C189.046 270.73 186.878 276.719 192.326 282.711C193.65 284.165 195.357 287.275 197.148 291.15L204.947 285.427C195.956 289.15 192.687 273.982 192.959 269.724C193.171 266.388 190.494 258.979 189.312 255.902C187.824 258.177 190.057 270.185 190.057 270.185Z" fill="#F15859"/>
<path fill-rule="evenodd" clip-rule="evenodd" d="M181.173 422.125C178.897 419.465 176.068 415.944 172.29 411.204C159.494 395.137 147.637 356.604 144.095 332.229C140.552 307.853 126.248 300.774 126.248 300.774C118.617 302.047 108.326 312.246 110.323 350.009C112.32 387.772 167.933 426.046 171.748 428.157C172.423 428.581 173.039 429.093 173.58 429.678L181.173 422.125Z" fill="white"/>
<path fill-rule="evenodd" clip-rule="evenodd" d="M170.263 258.43C165.885 256.989 161.952 261.197 161.952 261.197C161.946 259.989 162.029 258.783 162.201 257.588C162.04 257.817 161.952 257.951 161.952 257.951C161.952 257.951 159.639 252.165 157.117 255.636C154.594 259.106 158.41 263.398 158.41 263.398C158.682 266.872 151.055 286.07 149.355 290.153C147.654 294.236 151.123 296.886 157.184 301.524C158.018 302.177 158.976 302.654 159.999 302.928C160.046 302.928 168.024 301.888 164.131 294.738C160.238 287.588 162.541 281.758 162.541 281.758L167.195 284.912C167.195 284.912 173.856 288.453 177.56 285.737C181.264 283.02 184.968 260.931 184.968 260.931C184.793 260.533 184.632 260.153 184.443 259.779C180.419 260.661 173.701 259.561 170.263 258.43Z" fill="#F37878"/>
<path fill-rule="evenodd" clip-rule="evenodd" d="M164.131 294.738C168.024 301.895 160.05 302.921 159.999 302.928C165.077 304.234 169.576 299.225 168.418 296.623C167.054 293.56 167.189 284.912 167.189 284.912L162.535 281.758C162.535 281.758 160.228 287.568 164.131 294.738Z" fill="#F15859"/>
<path fill-rule="evenodd" clip-rule="evenodd" d="M162.201 257.588C162.029 258.783 161.946 259.989 161.952 261.196C161.952 261.196 165.885 256.989 170.263 258.429C173.701 259.56 180.419 260.661 184.446 259.776C175.277 240.396 164.006 255.029 162.201 257.588Z" fill="#F15859"/>
<path fill-rule="evenodd" clip-rule="evenodd" d="M193.781 238.323C189.333 237.051 185.426 239.865 185.426 239.865C185.426 239.865 180.712 229.608 174.075 237.323C167.438 245.039 166.63 241.679 161.952 241.77C157.275 241.861 154.642 242.861 154.823 246.762C155.005 250.664 144.741 252.118 148.92 258.746L149.846 260.207C146.728 253.542 151.328 257.406 152.965 252.912C154.601 248.418 161.545 254.548 164.303 251.62C167.061 248.691 169.99 252.505 172.576 256.332C175.163 260.16 182.066 261.644 182.066 261.644C184.342 261.58 186.458 260.46 187.79 258.615C193.781 250.667 198.229 239.592 193.781 238.323Z" fill="#2F3E8B"/>
<path fill-rule="evenodd" clip-rule="evenodd" d="M172.577 256.319C169.99 252.505 167.057 248.694 164.303 251.606C161.548 254.518 154.598 248.408 152.965 252.899C151.332 257.389 146.728 253.528 149.847 260.193C153.551 266.051 156.208 270.369 154.814 276.015C154.814 276.015 159.774 264.755 159.228 263.664C159.228 263.664 155.915 260.123 156.935 257.355C157.955 254.588 161.06 256.517 161.952 257.945V261.19C161.952 261.19 164.269 255.467 166.946 256.016C168.923 256.416 176.038 261.927 182.066 261.624C182.066 261.624 175.166 260.129 172.577 256.319Z" fill="#1F2055"/>
<path fill-rule="evenodd" clip-rule="evenodd" d="M200.637 596.524L202.186 597.577H237.412C233.459 594.568 227.196 590.091 223.02 588.364C216.912 585.819 209.379 584.698 209.305 578.938C206.163 579.039 202.617 579.171 199.734 579.275C199.734 579.275 197.64 594.48 200.637 596.524Z" fill="#1F2055"/>
<path fill-rule="evenodd" clip-rule="evenodd" d="M202.186 597.577L200.637 596.524C197.64 594.48 199.734 579.275 199.734 579.275C198.121 579.339 196.704 579.393 195.714 579.436C195.68 581.527 195.582 583.372 195.414 584.903C194.741 591.138 194.209 595.174 193.868 597.577H202.186Z" fill="#2D4087"/>
<path fill-rule="evenodd" clip-rule="evenodd" d="M240.076 599.634C239.419 599.119 238.5 598.402 237.412 597.577H193.868C193.572 599.657 193.417 600.516 193.417 600.516H239.766C239.976 600.517 240.164 600.384 240.234 600.185C240.304 599.986 240.24 599.765 240.076 599.634Z" fill="#C9E1F2"/>
<path d="M213.393 584.583L211.123 586.99" stroke="#CAE2F2" stroke-width="2" stroke-linecap="round"/>
<path d="M215.861 585.708L213.813 588.427" stroke="#CAE2F2" stroke-width="2" stroke-linecap="round"/>
<path d="M217.996 586.506L216.097 589.306" stroke="#CAE2F2" stroke-width="2" stroke-linecap="round"/>
<path fill-rule="evenodd" clip-rule="evenodd" d="M173.539 599.045C171.182 594.803 166.784 587.889 162.905 587.263C157.284 586.357 146.047 578.026 146.741 572.219L131.251 569.624C130.53 577.248 129.854 583.089 129.517 585.866C131.611 587.34 148.374 598.92 160.585 599.048C166.245 599.105 170.505 598.971 173.539 599.045Z" fill="#2F3E8B"/>
<path fill-rule="evenodd" clip-rule="evenodd" d="M154.009 600.516C163.346 602.434 170.071 602.552 173.233 602.451C173.683 602.438 174.095 602.194 174.322 601.805C174.549 601.416 174.559 600.937 174.348 600.539C174.119 600.102 173.846 599.593 173.539 599.045C170.509 598.971 166.246 599.105 160.592 599.045C148.395 598.917 131.632 587.337 129.524 585.862C129.389 587.003 129.309 587.623 129.309 587.623C129.309 587.623 140.751 597.789 154.009 600.516Z" fill="#C9E1F2"/>
<path d="M149.543 578.699L142.68 579.844" stroke="#CAE2F2" stroke-width="2" stroke-linecap="round"/>
<path d="M151.372 580.608L144.314 582.702" stroke="#CAE2F2" stroke-width="2" stroke-linecap="round"/>
<path d="M153.321 582.287L146.112 584.879" stroke="#CAE2F2" stroke-width="2" stroke-linecap="round"/>
<path fill-rule="evenodd" clip-rule="evenodd" d="M436.238 582.756L421.421 585.278L418.209 572.796L434.537 570.042C434.8 572.102 435.979 580.888 436.238 582.756Z" fill="#F15859"/>
<path fill-rule="evenodd" clip-rule="evenodd" d="M366.213 580.511C364.62 580.494 364.192 576.808 364.118 575.216C364.044 573.624 365.886 573.028 365.886 573.028C365.886 573.028 363.667 542.933 364.037 530.562C364.408 518.191 392.913 463.156 392.913 463.156C392.913 463.156 379.702 514.613 375.625 533.69C373.213 544.987 371.725 559.997 371.284 572.762C371.773 572.778 372.235 572.989 372.568 573.347C372.901 573.706 373.078 574.182 373.059 574.67L372.907 578.643C372.871 579.599 372.106 580.367 371.149 580.407L366.293 580.582C366.361 580.538 366.344 580.511 366.213 580.511Z" fill="#1F2055"/>
<path fill-rule="evenodd" clip-rule="evenodd" d="M355.292 579.541L354.619 576.175C354.458 575.377 354.842 574.567 355.561 574.186C352.43 551.948 347.342 508.88 349.837 492.473C353.086 471.07 357.548 423.263 357.548 423.263L446.279 423.754C446.279 423.754 438.164 437.738 420.014 442.164C401.863 446.591 392.933 463.15 392.933 463.15C392.933 463.15 364.428 518.181 364.057 530.556C363.687 542.93 365.906 573.021 365.906 573.021C365.906 573.021 364.071 573.624 364.138 575.209C364.206 576.795 364.64 580.487 366.233 580.504C366.364 580.504 366.381 580.531 366.307 580.575L356.565 580.912C355.924 580.719 355.437 580.195 355.292 579.541Z" fill="#2F3E8B"/>
<path fill-rule="evenodd" clip-rule="evenodd" d="M435.736 571.23C435.692 570.301 435.453 570.268 434.571 570.19C431.877 547.67 428.688 511.351 432.294 495.062C438.676 466.254 446.279 423.754 446.279 423.754L391.303 423.536L392.916 463.15L394.785 485.192C396.219 502.101 411.659 551.528 418.299 573.186C417.833 573.648 417.678 574.34 417.902 574.957L418.801 577.889C418.801 577.889 419.572 580.033 420.111 580.198L435.544 577.596C436.143 577.259 436.026 575.331 435.995 574.62L435.736 571.23Z" fill="#1F2055"/>
<path fill-rule="evenodd" clip-rule="evenodd" d="M366.287 580.582L371.143 580.406C371.143 583.386 371.213 586.129 371.355 588.553H367.314L366.287 580.582Z" fill="#F15859"/>
<path fill-rule="evenodd" clip-rule="evenodd" d="M357.605 587.355C357.403 586.345 357.03 584.113 356.545 580.928L366.287 580.592L367.33 588.58C364.448 588.58 360.899 588.614 357.757 588.647C357.743 588.213 357.692 587.78 357.605 587.355Z" fill="#F37878"/>
<path d="M369.698 572.863L357.114 574.021" stroke="#CAE2F2" stroke-width="2" stroke-linecap="round"/>
<path d="M363.337 571.843C363.337 571.843 360.744 528.341 363.906 510.032C367.068 491.723 375.402 447.756 375.402 447.756" stroke="#CAE2F2" stroke-width="2" stroke-linecap="round"/>
<path d="M433.723 570.338L418.943 573.028" stroke="#0E142D" stroke-width="2" stroke-linecap="round"/>
<path d="M426.267 570.166C426.267 570.166 412.053 514.478 410.878 487.45C409.702 460.423 415.905 443.416 415.905 443.416" stroke="#0E142D" stroke-width="2" stroke-linecap="round"/>
<path fill-rule="evenodd" clip-rule="evenodd" d="M447.313 300.381C453.988 290.319 414.077 282.122 415.441 273.134C416.805 264.146 399.503 267.96 399.91 258.346C400.092 254.122 398.375 251.681 395.607 250.409C394.464 249.91 393.255 249.583 392.017 249.436C369.136 243.925 366.762 257.515 366.762 257.515C364.937 259.386 361.754 261.76 360.835 264.008C358.111 270.69 362.835 273.131 365.512 276.534C368.189 279.937 370.264 286.784 363.697 290.423C353.366 296.146 369.146 300.229 360.562 306.356C351.979 312.482 362.286 323.241 362.286 323.241C362.286 323.241 433.571 327.87 445.152 320.245C456.732 312.62 447.313 300.381 447.313 300.381Z" fill="#2F3E8B"/>
<path fill-rule="evenodd" clip-rule="evenodd" d="M395.553 267.825C395.553 267.825 402.5 282.257 409.992 282.395C417.485 282.533 412.986 292.743 424.021 296.146C435.056 299.549 441.868 288.686 447.313 300.381C447.313 300.381 457.665 295.668 455.486 307.137C453.307 318.606 446.337 330.701 437.221 331.468C428.106 332.236 361.99 339.261 361.542 321.854C361.094 304.447 372.399 308.5 373.352 299.805C374.304 291.11 366.782 280.048 370.543 271.757C374.304 263.466 395.553 267.825 395.553 267.825Z" fill="#1F2055"/>
<path fill-rule="evenodd" clip-rule="evenodd" d="M405.904 356.648C414.976 326.994 437.221 315.916 437.221 315.916C447.384 343.129 446.279 423.754 446.279 423.754C446.279 423.754 435.948 432.745 411.565 436.351C387.181 439.956 357.548 423.256 357.548 423.256C392.121 419.94 396.836 386.298 405.904 356.648Z" fill="#C9E2F4"/>
<path fill-rule="evenodd" clip-rule="evenodd" d="M362.269 331.469C362.269 331.469 348.695 370.494 345.432 377.391C342.169 384.289 336.606 395.199 336.599 395.232C333.437 416.571 333.07 429.605 333.07 429.605C333.07 429.605 328.972 437.23 326.238 441.858C323.503 446.487 330.801 441.586 331.033 442.532C331.265 443.478 326.362 460.036 330.447 458.915C334.532 457.794 344.206 449.103 344.341 437.987C344.476 426.872 344.341 426.879 346.924 418.84C347.961 415.635 353.073 407.243 358.888 397.504L360.72 362.303L362.269 331.469Z" fill="#C9E2F4"/>
<path fill-rule="evenodd" clip-rule="evenodd" d="M433.655 309.301C419.684 293.187 395.94 299.172 395.94 299.172C395.94 299.172 378.787 305.063 368.947 311.816C368.467 312.146 368.041 312.548 367.684 313.007C366.698 314.293 364.414 317.363 361.535 321.871C356.674 329.482 352.449 337.482 348.904 345.788C345.197 354.405 342.386 363.381 340.516 372.573C338.876 380.861 337.593 388.462 336.59 395.232C336.59 395.215 342.153 384.301 345.422 377.391C348.692 370.48 362.259 331.468 362.259 331.468L360.707 362.293L358.885 397.497L357.538 423.266C392.115 419.943 396.829 386.301 405.898 356.651C414.966 327.001 437.214 315.919 437.214 315.919C436.177 313.071 434.975 310.809 433.655 309.301Z" fill="white"/>
<path d="M560 583.547C560 583.547 543.655 583.403 513.827 543.432C483.998 503.461 456.301 465.469 391.283 455.667" stroke="#2E3F8B" stroke-width="19"/>
<path d="M396.685 457.34C398.785 438.673 391.659 422.547 380.768 421.321C369.877 420.096 359.346 434.235 357.246 452.902C355.145 471.569 362.271 487.695 373.162 488.92C384.053 490.146 394.584 476.007 396.685 457.34Z" fill="#FDB714"/>
<path fill-rule="evenodd" clip-rule="evenodd" d="M348.861 459.127C345.035 459.746 338.62 467.021 333.068 475.379L340.998 404.903L375.46 410.34C379.942 410.845 383.697 414.672 386.374 420.704C386.374 420.704 357.579 457.71 348.861 459.127Z" fill="#F7B219"/>
<path fill-rule="evenodd" clip-rule="evenodd" d="M390.192 456.838C387.441 481.29 376.385 500.121 365.488 498.896C365.253 498.869 365.017 498.828 364.785 498.785L331.03 493.459L333.05 475.379C338.603 467.021 345.018 459.746 348.843 459.127C357.578 457.71 386.373 420.724 386.373 420.724C390.195 429.332 391.811 442.457 390.192 456.838Z" fill="#E0A126"/>
<path d="M355.73 451.4C358.482 426.948 351.883 406.133 340.992 404.908C330.101 403.682 319.042 422.511 316.291 446.962C313.54 471.414 320.138 492.229 331.029 493.454C341.92 494.68 352.979 475.851 355.73 451.4Z" fill="#FDB714"/>
<path d="M339.584 435.179C339.914 432.252 338.877 429.733 337.269 429.552C335.661 429.371 334.091 431.597 333.762 434.524C333.432 437.45 334.469 439.969 336.077 440.15C337.685 440.331 339.255 438.105 339.584 435.179Z" fill="#B97F2B"/>
<path d="M335.361 467.444C335.69 464.518 334.654 461.999 333.046 461.818C331.438 461.637 329.868 463.863 329.539 466.789C329.209 469.716 330.246 472.235 331.854 472.415C333.461 472.596 335.032 470.371 335.361 467.444Z" fill="#B97F2B"/>
<path fill-rule="evenodd" clip-rule="evenodd" d="M373.793 454.084C369.553 461.083 360.323 462.214 360.323 462.214C359.683 458.767 366.984 447.402 367.348 446.301C367.711 445.201 361.357 446.564 359.939 445.668C358.522 444.773 361.047 442.975 367.284 440.579C371.681 438.896 373.88 437.347 379.032 430.759L386.949 437.977C386.949 437.977 378.032 447.086 373.793 454.084Z" fill="#F37878"/>
<path fill-rule="evenodd" clip-rule="evenodd" d="M360.31 462.214C360.31 462.214 369.553 461.083 373.779 454.084C378.005 447.086 386.939 437.977 386.939 437.977C382.642 442.74 375.49 455.125 373.591 457.272C371.395 459.753 360.949 465.661 360.31 462.214Z" fill="#F15859"/>
<path fill-rule="evenodd" clip-rule="evenodd" d="M379.036 430.759C381.191 428.002 383.865 424.364 387.431 419.462C399.523 402.853 409.686 363.842 412.165 339.345C414.643 314.849 428.621 307.144 428.621 307.144C436.296 308.083 447.024 317.825 446.674 355.638C446.324 393.451 392.432 434.102 388.714 436.378C388.058 436.829 387.465 437.367 386.953 437.977L379.036 430.759Z" fill="white"/>
<path fill-rule="evenodd" clip-rule="evenodd" d="M390.515 302.754C386.935 310.066 394.953 310.753 395 310.756C389.983 312.284 385.272 307.46 386.309 304.821C387.538 301.704 387.026 293.07 387.026 293.07L391.539 289.703C391.539 289.703 394.104 295.419 390.515 302.754Z" fill="#F15859"/>
<path fill-rule="evenodd" clip-rule="evenodd" d="M405.079 297.52C403.2 293.514 394.745 274.666 394.866 271.185C394.866 271.185 398.489 266.735 395.822 263.376C393.155 260.016 391.091 265.897 391.091 265.897C391.091 265.897 390.997 265.766 390.825 265.56C388.912 263.083 377.019 248.955 368.698 268.711C368.539 269.092 368.381 269.482 368.223 269.886C368.223 269.886 373.712 290.666 377.503 293.224C381.295 295.783 387.027 293.076 387.027 293.076L391.539 289.71C391.539 289.71 394.105 295.412 390.529 302.747C386.952 310.083 394.967 310.746 395.014 310.749C396.024 310.431 396.96 309.912 397.765 309.224C403.604 304.343 406.958 301.539 405.079 297.52Z" fill="#F37878"/>
<path fill-rule="evenodd" clip-rule="evenodd" d="M367.118 605.092L365.616 606.213L330.42 607.744C334.259 604.566 340.303 599.82 344.398 597.901C350.392 595.094 357.868 593.65 357.693 587.89C360.834 587.853 364.384 587.833 367.266 587.819C367.266 587.823 370.024 602.92 367.118 605.092Z" fill="#2D4087"/>
<path fill-rule="evenodd" clip-rule="evenodd" d="M365.617 606.206L367.119 605.085C370.025 602.913 367.267 587.816 367.267 587.812H371.308C371.432 589.899 371.607 591.737 371.843 593.262C372.796 599.46 373.496 603.469 373.941 605.859L365.617 606.206Z" fill="#1F2055"/>
<path fill-rule="evenodd" clip-rule="evenodd" d="M327.851 609.909C328.487 609.363 329.37 608.609 330.42 607.737L365.617 606.206L373.927 605.845C374.311 607.909 374.503 608.761 374.503 608.761L361.441 609.33L328.198 610.777C327.987 610.787 327.793 610.662 327.715 610.466C327.637 610.27 327.692 610.047 327.851 609.909Z" fill="#C9E1F2"/>
<path d="M353.854 593.717L356.225 596.023" stroke="#CAE2F2" stroke-width="2" stroke-linecap="round"/>
<path d="M351.44 594.949L353.602 597.574" stroke="#CAE2F2" stroke-width="2" stroke-linecap="round"/>
<path d="M349.339 595.837L351.359 598.554" stroke="#CAE2F2" stroke-width="2" stroke-linecap="round"/>
<path fill-rule="evenodd" clip-rule="evenodd" d="M436.238 582.756L421.421 585.277C421.421 585.277 419.29 591.64 411.541 595.282C406.652 597.581 402.449 601.536 399.988 604.145C407.568 603.809 432.126 602.708 440.861 601.452C439.713 595.804 436.238 582.756 436.238 582.756Z" fill="#1E204D"/>
<path fill-rule="evenodd" clip-rule="evenodd" d="M441.228 603.674C441.157 602.925 441.038 602.182 440.871 601.449C432.136 602.708 407.577 603.822 399.997 604.142C398.566 605.667 397.741 606.73 397.741 606.73C397.741 606.73 441.329 606.353 441.228 603.674Z" fill="#C9E1F2"/>
<path d="M418.67 589.819L421.522 591.758" stroke="#CAE2F2" stroke-width="2" stroke-linecap="round"/>
<path d="M416.824 591.758L419.841 593.71" stroke="#CAE2F2" stroke-width="2" stroke-linecap="round"/>
<path d="M414.71 593.451L417.347 595.299" stroke="#CAE2F2" stroke-width="2" stroke-linecap="round"/>
<path fill-rule="evenodd" clip-rule="evenodd" d="M368.856 264.557C368.856 264.557 372.806 270.139 379.632 269.391C386.458 268.644 389.576 270.004 389.576 270.004L391.28 272.182L391.108 265.907C391.108 265.907 389.441 259.286 387.67 258.347C385.899 257.407 377.709 252.913 373.207 255.105C368.705 257.296 362.381 266.473 364.489 270.287C366.597 274.101 368.711 277.693 368.711 277.693C368.711 277.693 373.419 266.887 368.856 264.557Z" fill="#2F3E8B"/>
<path d="M462.261 269.283C469.649 269.283 475.639 263.295 475.639 255.909C475.639 248.522 469.649 242.534 462.261 242.534C454.872 242.534 448.882 248.522 448.882 255.909C448.882 263.295 454.872 269.283 462.261 269.283Z" fill="#F7B219"/>
<path fill-rule="evenodd" clip-rule="evenodd" d="M459.877 261.837C459.52 261.837 459.177 261.695 458.924 261.443L454.546 257.067C454.02 256.54 454.02 255.687 454.546 255.161C455.073 254.635 455.926 254.635 456.452 255.161L459.884 258.591L467.699 250.778C468.04 250.437 468.536 250.304 469.002 250.428C469.468 250.553 469.832 250.916 469.957 251.381C470.082 251.846 469.949 252.343 469.609 252.684L460.854 261.453C460.593 261.707 460.241 261.846 459.877 261.837Z" fill="white"/>
<path fill-rule="evenodd" clip-rule="evenodd" d="M99.7896 250.054H130.433C132.568 250.054 134.299 251.785 134.299 253.919V281.054C134.298 281.502 134.029 281.905 133.616 282.076C133.203 282.248 132.727 282.154 132.41 281.839L125.419 274.83C124.804 274.214 123.969 273.867 123.099 273.867H99.7896C97.6193 273.867 95.8599 272.109 95.8599 269.939V253.976C95.8654 251.81 97.6227 250.056 99.7896 250.054Z" fill="#2F3E8B"/>
<path fill-rule="evenodd" clip-rule="evenodd" d="M103.497 257.124H125.385C126.166 257.128 126.798 257.761 126.8 258.541C126.798 259.321 126.166 259.953 125.385 259.955H103.497C102.717 259.953 102.085 259.321 102.083 258.541C102.085 257.761 102.716 257.128 103.497 257.124Z" fill="#1F2055"/>
<path fill-rule="evenodd" clip-rule="evenodd" d="M112.08 265.223H125.365C126.145 265.225 126.777 265.857 126.779 266.637C126.777 267.417 126.145 268.049 125.365 268.051H112.08C111.3 268.049 110.668 267.417 110.666 266.637C110.668 265.857 111.3 265.225 112.08 265.223Z" fill="#1F2055"/>
<path d="M278.587 400.187C290.037 400.073 299.226 390.675 299.112 379.195C298.998 367.716 289.623 358.502 278.173 358.616C266.723 358.73 257.534 368.128 257.648 379.608C257.762 391.088 267.137 400.301 278.587 400.187Z" fill="#2F3E8B"/>
<path fill-rule="evenodd" clip-rule="evenodd" d="M287.594 387.833L269.335 388.025L269.335 385.359C269.328 383.708 270.144 382.163 271.511 381.238L274.989 378.882C272.612 377.361 271.52 374.456 272.308 371.747C273.096 369.037 275.575 367.17 278.398 367.16C281.22 367.151 283.712 369.001 284.519 371.705C285.325 374.409 284.253 377.321 281.886 378.858L285.381 381.178C286.756 382.093 287.584 383.633 287.59 385.285L287.594 387.833Z" fill="white"/>
<path d="M321.264 425.558C321.264 425.558 279.909 440.993 302.794 447.204C325.679 453.414 463.419 403.853 463.419 403.853" stroke="#1F2055" stroke-width="2" stroke-linecap="round" stroke-dasharray="8 8"/>
<path fill-rule="evenodd" clip-rule="evenodd" d="M80.73 318.592L77.2784 322.291L50.9622 311.317L80.73 318.592Z" fill="#1F2055"/>
<path fill-rule="evenodd" clip-rule="evenodd" d="M79.5043 306.376L82.1006 310.297L80.3462 314.138L84.286 314.808L87.7713 322.453L50.1169 311.065L79.5043 306.376Z" fill="#2F3E8B"/>
<path fill-rule="evenodd" clip-rule="evenodd" d="M80.3461 314.138L82.1005 310.297L61.7075 311.25L80.3461 314.138Z" fill="#1F2055"/>
<path fill-rule="evenodd" clip-rule="evenodd" d="M466.648 403.819L470.103 407.522L496.42 396.548L466.648 403.819Z" fill="#1F2055"/>
<path fill-rule="evenodd" clip-rule="evenodd" d="M467.877 391.606L465.278 395.525L467.035 399.369L463.092 400.039L459.61 407.683L497.265 396.292L467.877 391.606Z" fill="#2F3E8B"/>
<path fill-rule="evenodd" clip-rule="evenodd" d="M467.036 399.369L465.278 395.524L485.674 396.48L467.036 399.369Z" fill="#1F2055"/>
</g>
<defs>
<linearGradient id="paint0_linear_3_277" x1="581" y1="-399" x2="-76.5" y2="1027.5" gradientUnits="userSpaceOnUse">
<stop stop-color="#03004D"/>
<stop offset="0.971829" stop-color="#3563EB"/>
</linearGradient>
<clipPath id="clip0_3_277">
<rect width="554" height="824" fill="white"/>
</clipPath>
</defs>
</svg>
